{
	"asset":{
		"generator":"Khronos glTF Blender I/O v4.1.63",
		"version":"2.0"
	},
	"scene":0,
	"scenes":[
		{
			"name":"Scene",
			"nodes":[
				0,
				1,
				2,
				3
			]
		}
	],
	"nodes":[
		{
			"mesh":0,
			"name":"Cup"
		},
		{
			"mesh":1,
			"name":"spyro1",
			"rotation":[
				0.7287781238555908,
				0,
				0,
				0.6847500205039978
			],
			"scale":[
				4.199986457824707,
				1.003531575202942,
				1.8128325939178467
			],
			"translation":[
				0,
				0.9878653287887573,
				-1.8641326427459717
			]
		},
		{
			"mesh":2,
			"name":"spyro2",
			"rotation":[
				0.6950583457946777,
				0,
				0,
				0.7189533114433289
			],
			"scale":[
				3.0992445945739746,
				1.0009444952011108,
				1.6883856058120728
			],
			"translation":[
				0.1502373367547989,
				0.985278308391571,
				1.7006114721298218
			]
		},
		{
			"mesh":3,
			"name":"spyro3",
			"rotation":[
				0.489061176776886,
				0.5068680047988892,
				-0.5108411908149719,
				0.4928949177265167
			],
			"scale":[
				3.3682262897491455,
				1.0031131505966187,
				1.6645616292953491
			],
			"translation":[
				-1.8540329933166504,
				0.9603689908981323,
				0
			]
		}
	],
	"materials":[
		{
			"doubleSided":true,
			"name":"Material.001",
			"pbrMetallicRoughness":{
				"baseColorFactor":[
					0.8005832433700562,
					0.7362632155418396,
					0.7773462533950806,
					1
				],
				"metallicFactor":0,
				"roughnessFactor":0.5
			}
		},
		{
			"alphaMode":"BLEND",
			"doubleSided":true,
			"name":"spyro1",
			"pbrMetallicRoughness":{
				"baseColorTexture":{
					"index":0
				},
				"metallicFactor":0,
				"roughnessFactor":0.5
			}
		},
		{
			"alphaMode":"BLEND",
			"doubleSided":true,
			"name":"spyro2",
			"pbrMetallicRoughness":{
				"baseColorTexture":{
					"index":1
				},
				"metallicFactor":0,
				"roughnessFactor":0.5
			}
		},
		{
			"alphaMode":"BLEND",
			"doubleSided":true,
			"name":"spyro3",
			"pbrMetallicRoughness":{
				"baseColorTexture":{
					"index":2
				},
				"metallicFactor":0,
				"roughnessFactor":0.5
			}
		}
	],
	"meshes":[
		{
			"name":"Circle",
			"primitives":[
				{
					"attributes":{
						"POSITION":0,
						"NORMAL":1,
						"TEXCOORD_0":2
					},
					"indices":3,
					"material":0
				}
			]
		},
		{
			"name":"spyro1",
			"primitives":[
				{
					"attributes":{
						"POSITION":4,
						"NORMAL":5,
						"TEXCOORD_0":6
					},
					"indices":7,
					"material":1
				}
			]
		},
		{
			"name":"spyro2",
			"primitives":[
				{
					"attributes":{
						"POSITION":8,
						"NORMAL":9,
						"TEXCOORD_0":10
					},
					"indices":11,
					"material":2
				}
			]
		},
		{
			"name":"spyro3",
			"primitives":[
				{
					"attributes":{
						"POSITION":12,
						"NORMAL":13,
						"TEXCOORD_0":14
					},
					"indices":15,
					"material":3
				}
			]
		}
	],
	"textures":[
		{
			"sampler":0,
			"source":0
		},
		{
			"sampler":0,
			"source":1
		},
		{
			"sampler":0,
			"source":2
		}
	],
	"images":[
		{
			"mimeType":"image/png",
			"name":"spyro1",
			"uri":"textures/spyro1.png"
		},
		{
			"mimeType":"image/png",
			"name":"spyro2",
			"uri":"textures/spyro2.png"
		},
		{
			"mimeType":"image/png",
			"name":"spyro3",
			"uri":"textures/spyro3.png"
		}
	],
	"accessors":[
		{
			"bufferView":0,
			"componentType":5126,
			"count":169283,
			"max":[
				2.0132274627685547,
				1.9987467527389526,
				1.0928820371627808
			],
			"min":[
				-1.0928820371627808,
				-0.09998947381973267,
				-1.0928820371627808
			],
			"type":"VEC3"
		},
		{
			"bufferView":1,
			"componentType":5126,
			"count":169283,
			"type":"VEC3"
		},
		{
			"bufferView":2,
			"componentType":5126,
			"count":169283,
			"type":"VEC2"
		},
		{
			"bufferView":3,
			"componentType":5125,
			"count":275712,
			"type":"SCALAR"
		},
		{
			"bufferView":4,
			"componentType":5126,
			"count":13684,
			"max":[
				0.18416383862495422,
				1.1176786422729492,
				0.421911358833313
			],
			"min":[
				-0.18416382372379303,
				0.712462306022644,
				-0.5171421766281128
			],
			"type":"VEC3"
		},
		{
			"bufferView":5,
			"componentType":5126,
			"count":13684,
			"type":"VEC3"
		},
		{
			"bufferView":6,
			"componentType":5126,
			"count":13684,
			"type":"VEC2"
		},
		{
			"bufferView":7,
			"componentType":5123,
			"count":24576,
			"type":"SCALAR"
		},
		{
			"bufferView":8,
			"componentType":5126,
			"count":13249,
			"max":[
				0.19798040390014648,
				-0.5779069662094116,
				0.45717066526412964
			],
			"min":[
				-0.26757070422172546,
				-0.9350845217704773,
				-0.5122503042221069
			],
			"type":"VEC3"
		},
		{
			"bufferView":9,
			"componentType":5126,
			"count":13249,
			"type":"VEC3"
		},
		{
			"bufferView":10,
			"componentType":5126,
			"count":13249,
			"type":"VEC2"
		},
		{
			"bufferView":11,
			"componentType":5123,
			"count":24576,
			"type":"SCALAR"
		},
		{
			"bufferView":12,
			"componentType":5126,
			"count":11904,
			"max":[
				0.15150929987430573,
				0.9203943014144897,
				0.4635445475578308
			],
			"min":[
				-0.17393910884857178,
				0.7564626932144165,
				-0.49943608045578003
			],
			"type":"VEC3"
		},
		{
			"bufferView":13,
			"componentType":5126,
			"count":11904,
			"type":"VEC3"
		},
		{
			"bufferView":14,
			"componentType":5126,
			"count":11904,
			"type":"VEC2"
		},
		{
			"bufferView":15,
			"componentType":5123,
			"count":24576,
			"type":"SCALAR"
		}
	],
	"bufferViews":[
		{
			"buffer":0,
			"byteLength":2031396,
			"byteOffset":0,
			"target":34962
		},
		{
			"buffer":0,
			"byteLength":2031396,
			"byteOffset":2031396,
			"target":34962
		},
		{
			"buffer":0,
			"byteLength":1354264,
			"byteOffset":4062792,
			"target":34962
		},
		{
			"buffer":0,
			"byteLength":1102848,
			"byteOffset":5417056,
			"target":34963
		},
		{
			"buffer":0,
			"byteLength":164208,
			"byteOffset":6519904,
			"target":34962
		},
		{
			"buffer":0,
			"byteLength":164208,
			"byteOffset":6684112,
			"target":34962
		},
		{
			"buffer":0,
			"byteLength":109472,
			"byteOffset":6848320,
			"target":34962
		},
		{
			"buffer":0,
			"byteLength":49152,
			"byteOffset":6957792,
			"target":34963
		},
		{
			"buffer":0,
			"byteLength":158988,
			"byteOffset":7006944,
			"target":34962
		},
		{
			"buffer":0,
			"byteLength":158988,
			"byteOffset":7165932,
			"target":34962
		},
		{
			"buffer":0,
			"byteLength":105992,
			"byteOffset":7324920,
			"target":34962
		},
		{
			"buffer":0,
			"byteLength":49152,
			"byteOffset":7430912,
			"target":34963
		},
		{
			"buffer":0,
			"byteLength":142848,
			"byteOffset":7480064,
			"target":34962
		},
		{
			"buffer":0,
			"byteLength":142848,
			"byteOffset":7622912,
			"target":34962
		},
		{
			"buffer":0,
			"byteLength":95232,
			"byteOffset":7765760,
			"target":34962
		},
		{
			"buffer":0,
			"byteLength":49152,
			"byteOffset":7860992,
			"target":34963
		}
	],
	"samplers":[
		{
			"magFilter":9729,
			"minFilter":9987,
			"wrapS":33071,
			"wrapT":33071
		}
	],
	"buffers":[
		{
			"byteLength":7910144,
			"uri":"cupdecal.bin"
		}
	]
}
